<svg xmlns="http://www.w3.org/2000/svg" version="1.1" xmlns:xlink="http://www.w3.org/1999/xlink" xmlns:svgjs="http://svgjs.dev/svgjs" width="1000" height="623" viewBox="0 0 1000 623"><g transform="matrix(1,0,0,1,-0.6060223102109035,0.2522267206477409)"><svg viewBox="0 0 396 247" data-background-color="#000000" preserveAspectRatio="xMidYMid meet" height="623" width="1000" xmlns="http://www.w3.org/2000/svg" xmlns:xlink="http://www.w3.org/1999/xlink"><g id="tight-bounds" transform="matrix(1,0,0,1,0.2400049472549881,-0.09999999999999432)"><svg viewBox="0 0 395.52 247.2" height="247.2" width="395.52"><g><svg></svg></g><g><svg viewBox="0 0 395.52 247.2" height="247.2" width="395.52"><g><g><path xmlns="http://www.w3.org/2000/svg" d="M143.556 247.2l-3.798-50.752 28.31-1.726c8.516-0.46 14.616-2.532 18.299-6.215 1.813-1.813 3.18-4.157 4.101-7.031l64.745 0c-1.787 18.096-7.934 32.339-18.44 42.73-12.659 12.567-31.878 19.656-57.657 21.268zM191.891 0h63.871l0 65.724-63.871 0z" fill="#ffffff" fill-rule="nonzero" stroke="none" stroke-width="1" stroke-linecap="butt" stroke-linejoin="miter" stroke-miterlimit="10" stroke-dasharray="" stroke-dashoffset="0" font-family="none" font-weight="none" font-size="none" text-anchor="none" style="mix-blend-mode: normal" data-fill-palette-color="tertiary"></path></g></g><g transform="matrix(1,0,0,1,0,78.574180846151)"><svg viewBox="0 0 395.52 90.051638307698" height="90.051638307698" width="395.52"><g><svg viewBox="0 0 661.441205752594 150.59633955865758" height="90.051638307698" width="395.52"><g transform="matrix(1,0,0,1,265.921205752594,0)"><svg viewBox="0 0 395.52 150.59633955865758" height="150.59633955865758" width="395.52"><g><svg viewBox="0 0 395.52 150.59633955865758" height="150.59633955865758" width="395.52"><g><svg viewBox="0 0 395.52 91.0293539054966" height="91.0293539054966" width="395.52"><g transform="matrix(1,0,0,1,0,0)"><svg width="395.52" viewBox="-0.15000000596046448 -35.25 155.5399932861328 35.79999923706055" height="91.0293539054966" data-palette-color="#ffffff"><path d="M0.4 0.55L-0.15-6.8 3.95-7.05Q5.8-7.15 6.6-7.95 7.4-8.75 7.4-10.5L7.4-10.5 7.4-35.25 16.65-35.25 16.65-10.65Q16.65-5.5 13.9-2.78 11.15-0.05 5.55 0.3L5.55 0.3 0.4 0.55ZM32.25 0L23.05 0 23.05-35.25 32.25-35.25 32.25 0ZM56.6-15.2L67.15-35.25 74.25-35.25 74.25 0 66.25 0 66.25-18.5 59.45-5.85 53.55-5.85 46.8-18.2 46.75 0 38.75 0 38.75-35.25 46-35.25 56.6-15.2ZM98.69-15.2L109.24-35.25 116.34-35.25 116.34 0 108.34 0 108.34-18.5 101.54-5.85 95.64-5.85 88.89-18.2 88.84 0 80.84 0 80.84-35.25 88.09-35.25 98.69-15.2ZM144.94-35.25L155.39-35.25 140.49-15.7 140.49 0 131.29 0 131.29-15.7 116.49-35.25 126.84-35.25 135.84-23 144.94-35.25Z" opacity="1" transform="matrix(1,0,0,1,0,0)" fill="#ffffff" class="undefined-text-0" data-fill-palette-color="primary" id="text-0"></path></svg></g></svg></g><g transform="matrix(1,0,0,1,0,112.51919965809063)"><svg viewBox="0 0 232.20979200000002 38.07713990056695" height="38.07713990056695" width="232.20979200000002"><g transform="matrix(1,0,0,1,0,0)"><svg width="232.20979200000002" viewBox="1.5099999904632568 -35.9900016784668 223.91000366210938 36.720001220703125" height="38.07713990056695" data-palette-color="#ffffff"><path d="M39.89-35.99Q39.26-35.99 38.87-34.86 38.48-33.74 38.21-32.03 37.94-30.32 37.82-28.25 37.7-26.17 37.67-24.27 37.65-22.36 37.65-20.87 37.65-19.38 37.65-18.85L37.65-18.85Q37.65-15.97 37.6-13.11 37.55-10.25 37.55-7.32L37.55-7.32Q37.55-6.93 37.55-5.83 37.55-4.74 37.6-3.52 37.65-2.29 37.82-1.27 37.99-0.24 38.28 0L38.28 0 29.69 0Q29.05-0.73 28.49-1.54 27.93-2.34 27.34-3.13L27.34-3.13 23.63-8.11Q20.51-12.3 17.33-16.46 14.16-20.61 10.79-24.66L10.79-24.66Q10.6-23.05 10.55-21.41 10.5-19.78 10.45-18.16L10.45-18.16Q10.35-15.67 10.3-13.18 10.25-10.69 10.25-8.2L10.25-8.2Q10.25-7.81 10.25-6.57 10.25-5.32 10.3-3.96 10.35-2.59 10.47-1.42 10.6-0.24 10.84 0L10.84 0 2.29 0Q2.59-0.29 2.78-1.88 2.98-3.47 3.08-5.71 3.17-7.96 3.22-10.57 3.27-13.18 3.27-15.58 3.27-17.97 3.25-19.82 3.22-21.68 3.22-22.41L3.22-22.41Q3.22-22.85 3.25-23.97 3.27-25.1 3.25-26.56 3.22-28.03 3.15-29.64 3.08-31.25 2.88-32.62 2.69-33.98 2.34-34.91 2-35.84 1.51-35.99L1.51-35.99 13.33-35.99Q13.18-35.94 13.18-35.6L13.18-35.6Q13.18-34.77 14.28-32.71 15.38-30.66 17.11-28 18.85-25.34 20.92-22.36 23-19.38 24.93-16.7 26.86-14.01 28.39-11.94 29.93-9.86 30.62-8.98L30.62-8.98Q30.71-12.35 30.69-15.7 30.66-19.04 30.66-22.41L30.66-22.41Q30.66-22.85 30.69-23.97 30.71-25.1 30.69-26.56 30.66-28.03 30.59-29.64 30.52-31.25 30.32-32.62 30.13-33.98 29.79-34.91 29.44-35.84 28.96-35.99L28.96-35.99 39.89-35.99ZM57.96 0.73L57.96 0.73Q55.56 0.73 52.88 0.1 50.19-0.54 47.92-1.88 45.65-3.22 44.16-5.27 42.67-7.32 42.67-10.16L42.67-10.16Q42.67-13.62 44.04-16.36 45.41-19.09 47.7-20.97 50-22.85 53.02-23.85 56.05-24.85 59.37-24.85L59.37-24.85Q62.01-24.85 64.06-24 66.11-23.14 67.48-21.61 68.85-20.07 69.55-17.97 70.26-15.87 70.26-13.33L70.26-13.33Q70.26-10.89 69.53-8.64L69.53-8.64 49.17-8.64Q49.66-7.18 50.71-6.25 51.76-5.32 53.1-4.81 54.44-4.3 55.93-4.1 57.42-3.91 58.74-3.91L58.74-3.91Q59.57-3.91 60.96-4.03 62.35-4.15 63.82-4.42 65.28-4.69 66.57-5.08 67.87-5.47 68.5-6.05L68.5-6.05 70.9-1.86Q67.67-0.63 64.55 0.05 61.42 0.73 57.96 0.73ZM57.96-20.26L57.96-20.26Q56.49-20.26 55.05-19.68 53.61-19.09 52.44-18.14 51.27-17.19 50.39-15.89 49.51-14.6 49.12-13.23L49.12-13.23 63.08-13.23Q63.23-14.7 63.11-15.99 62.99-17.29 62.45-18.24 61.91-19.19 60.84-19.73 59.76-20.26 57.96-20.26ZM86.37-17.63Q86.27-15.14 86.18-12.62 86.08-10.11 86.08-7.62L86.08-7.62Q86.08-6.79 86.42-6.2 86.76-5.62 87.32-5.25 87.89-4.88 88.59-4.74 89.3-4.59 90.03-4.59L90.03-4.59Q90.96-4.59 91.87-4.74 92.77-4.88 93.65-5.13L93.65-5.13 92.87 0.1Q90.03 0.1 87.54-0.07 85.05-0.24 83.2-1.12 81.34-2 80.27-3.93 79.19-5.86 79.19-9.38L79.19-9.38Q79.19-11.43 79.32-13.5 79.44-15.58 79.63-17.63L79.63-17.63 72.41-17.58 72.75-22.36Q74.51-22.22 76.31-22.19 78.12-22.17 79.93-22.17L79.93-22.17Q80.02-23.58 80.07-24.93 80.12-26.27 80.12-27.69L80.12-27.69Q80.12-27.98 80.12-28.86 80.12-29.74 80.02-30.69 79.93-31.64 79.73-32.42 79.54-33.2 79.19-33.35L79.19-33.35 88.18-33.2Q87.98-33.2 87.89-32.91 87.79-32.62 87.69-32.47L87.69-32.47Q87.4-31.54 87.23-30.22 87.06-28.91 86.93-27.47 86.81-26.03 86.74-24.68 86.66-23.34 86.62-22.31L86.62-22.31Q88.28-22.41 89.99-22.49 91.69-22.56 93.35-22.95L93.35-22.95 93.35-17.68 86.37-17.63ZM137.25-23.83Q136.96-23.58 136.35-22.51 135.73-21.44 134.9-19.82 134.07-18.21 133.12-16.19 132.17-14.16 131.19-12.06 130.22-9.96 129.31-7.91 128.41-5.86 127.73-4.17 127.04-2.49 126.63-1.29 126.21-0.1 126.21 0.24L126.21 0.24 126.21 0.39 119.96 0.39Q120.06 0.24 119.87-0.46 119.67-1.17 119.3-2.12 118.94-3.08 118.47-4.17 118.01-5.27 117.57-6.27 117.13-7.28 116.76-8.03 116.4-8.79 116.25-9.08L116.25-9.08Q116.01-8.54 115.37-7.15 114.74-5.76 114.08-4.25 113.42-2.73 112.91-1.44 112.39-0.15 112.39 0.29L112.39 0.29 112.39 0.39 106.14 0.39Q106.19 0.34 106.19 0.29L106.19 0.29Q106.19-0.15 105.44-1.98 104.68-3.81 103.51-6.35 102.34-8.89 100.9-11.77 99.46-14.65 98.16-17.19 96.87-19.73 95.84-21.56 94.82-23.39 94.43-23.83L94.43-23.83 102.63-23.83Q104.19-19.87 105.63-16.02 107.07-12.16 109.03-8.4L109.03-8.4Q110-10.4 110.95-12.35 111.91-14.31 112.88-16.31L112.88-16.31Q112.59-16.94 112.08-18.02 111.56-19.09 110.98-20.24 110.39-21.39 109.83-22.36 109.27-23.34 108.88-23.83L108.88-23.83 117.08-23.83Q117.57-22.61 117.94-21.39 118.3-20.17 118.69-18.95L118.69-18.95Q119.57-16.26 120.57-13.65 121.57-11.04 122.84-8.5L122.84-8.5Q124.11-11.33 125.36-14.14 126.6-16.94 127.87-19.82L127.87-19.82Q128.31-20.8 128.75-21.78 129.19-22.75 129.44-23.83L129.44-23.83 137.25-23.83ZM153.26-23.54L153.26-23.54Q155.95-23.54 158.93-22.78 161.9-22.02 164.35-20.48 166.79-18.95 168.4-16.6 170.01-14.26 170.01-11.08L170.01-11.08Q170.01-8.98 169.23-7.3 168.45-5.62 167.15-4.32 165.86-3.03 164.15-2.08 162.44-1.12 160.56-0.51 158.68 0.1 156.73 0.39 154.78 0.68 153.07 0.68L153.07 0.68Q150.28 0.68 147.35 0.05 144.42-0.59 142.01-2 139.59-3.42 138.05-5.69 136.51-7.96 136.51-11.28L136.51-11.28Q136.51-14.55 138.1-16.87 139.69-19.19 142.13-20.68 144.57-22.17 147.52-22.85 150.48-23.54 153.26-23.54ZM143.84-11.33L143.84-11.33Q143.84-9.42 144.69-8.11 145.55-6.79 146.89-5.96 148.23-5.13 149.89-4.76 151.55-4.39 153.16-4.39L153.16-4.39Q154.68-4.39 156.34-4.79 158-5.18 159.41-6.01 160.83-6.84 161.76-8.13 162.69-9.42 162.69-11.23L162.69-11.23Q162.69-13.04 161.81-14.38 160.93-15.72 159.56-16.63 158.19-17.53 156.51-17.97 154.82-18.41 153.26-18.41L153.26-18.41Q151.65-18.41 149.99-17.99 148.33-17.58 146.96-16.72 145.6-15.87 144.72-14.53 143.84-13.18 143.84-11.33ZM181.24-18.55L181.24-18.55Q182.41-19.53 183.95-20.41 185.49-21.29 187.17-21.95 188.85-22.61 190.59-23 192.32-23.39 193.84-23.39L193.84-23.39 193.84-19.19Q192.27-19.19 190.37-18.51 188.46-17.82 186.63-16.75 184.8-15.67 183.34-14.31 181.87-12.94 181.19-11.52L181.19-11.52Q181.19-11.18 181.21-10.25 181.24-9.33 181.26-8.11 181.29-6.88 181.34-5.54 181.38-4.2 181.48-3.03 181.58-1.86 181.68-1.03 181.77-0.2 181.92 0L181.92 0 174.01 0Q174.21-0.1 174.35-1.05 174.5-2 174.57-3.37 174.65-4.74 174.72-6.32 174.79-7.91 174.82-9.38 174.84-10.84 174.84-11.91 174.84-12.99 174.84-13.33L174.84-13.33Q174.84-13.77 174.84-15.19 174.84-16.6 174.79-18.16 174.74-19.73 174.65-21.07 174.55-22.41 174.35-22.71L174.35-22.71 181.58-22.71Q181.48-22.41 181.43-21.85 181.38-21.29 181.34-20.65 181.29-20.02 181.26-19.43 181.24-18.85 181.24-18.55ZM209.8-12.4L209.8-12.4Q212.44-10.11 215.1-7.89 217.76-5.66 220.44-3.42L220.44-3.42Q221.62-2.44 222.84-1.37 224.06-0.29 225.42 0.39L225.42 0.39 216.59 0.39Q216.44 0.15 215.66-0.56 214.88-1.27 213.78-2.15 212.68-3.03 211.41-4.05 210.14-5.08 208.97-6.01 207.8-6.93 206.85-7.64 205.89-8.35 205.45-8.69L205.45-8.69 203.7-7.18Q203.7-6.64 203.7-5.54 203.7-4.44 203.74-3.27 203.79-2.1 203.92-1.07 204.04-0.05 204.23 0.29L204.23 0.29 195.59 0.29Q195.79-0.05 195.98-1.27 196.18-2.49 196.32-4.3 196.47-6.1 196.59-8.33 196.71-10.55 196.84-12.89 196.96-15.23 197.03-17.55 197.1-19.87 197.18-21.85 197.25-23.83 197.28-25.34 197.3-26.86 197.3-27.59L197.3-27.59Q197.3-28.08 197.3-29.32 197.3-30.57 197.2-31.91 197.1-33.25 196.91-34.38 196.71-35.5 196.37-35.74L196.37-35.74 205.7-35.69Q205.31-35.45 205.01-33.98 204.72-32.52 204.5-30.4 204.28-28.27 204.14-25.76 203.99-23.24 203.92-20.95 203.84-18.65 203.79-16.85 203.74-15.04 203.74-14.36L203.74-14.36Q206.63-16.75 209.58-19.09 212.53-21.44 215.27-24.02L215.27-24.02 223.81-24.02Q222.54-23.34 221.44-22.31 220.35-21.29 219.22-20.41L219.22-20.41Q216.83-18.36 214.49-16.41 212.14-14.45 209.8-12.4Z" opacity="1" transform="matrix(1,0,0,1,0,0)" fill="#ffffff" class="undefined-text-1" data-fill-palette-color="secondary" id="text-1"></path></svg></g></svg></g></svg></g></svg></g><g transform="matrix(1,0,0,1,0,14.039270620111175)"><svg viewBox="0 0 244.43135999999998 122.51779831843523" height="122.51779831843523" width="244.43135999999998"><g><svg xmlns="http://www.w3.org/2000/svg" xmlns:xlink="http://www.w3.org/1999/xlink" xml:space="preserve" style="shape-rendering:geometricPrecision;text-rendering:geometricPrecision;image-rendering:optimizeQuality;" viewBox="0.0000020265579223632812 0.0000027120113372802734 14.727499008178711 7.38195276260376" x="0" y="0" fill-rule="evenodd" clip-rule="evenodd" width="244.43135999999998" height="122.51779831843523" class="icon-icon-0" data-fill-palette-color="accent" id="icon-0"><g fill="#8e13bd" data-fill-palette-color="accent"><path class="" d="M1.757 3.091c-0.313 0.444-0.296 1.331-0.417 1.95-0.153 0.784-0.711 1.203-1.34 1.534 0.188-0.771 0.348-1.542 0.412-2.313 0.078-0.953-0.06-0.891 0.767-1.575 1.159-0.961 3.04-1.741 5.848-2.29 2.456-0.406 5.049-0.453 7.701-0.351-0.89 1.809-3.733 1.961-7.203 1.581-1.811 0.02-3.495-0.488-5.768 1.464z m8.33 2.781c-3.895 2.038-7.803-2.284-9.165 0.688 2.104-1.831 5.079 3.183 9.165-0.688z m2.489-2.547c-4.49 2.72-9.502-0.792-10.907 1.859 3.412-1.235 7.765 2.753 10.907-1.859z m0.834-1.478c-3.944 1.761-10.043-1.402-11.565 2.239 3.106-1.808 8.446 1.438 11.565-2.239z" fill="#8e13bd" data-fill-palette-color="accent"></path></g></svg></g></svg></g></svg></g></svg></g></svg></g><defs><mask id="202be838-cd94-4d9c-8e2d-a42a74968175"><rect width="640" height="400" fill="white"></rect><rect width="348.05760000000004" height="157.213148344304" fill="black" x="145.97119999999998" y="121.393425827848" id="transform-me" transform="matrix(1,0,0,1,-122.24000000000001,-154.36607511505517)"></rect></mask><mask id="e785c681-2618-4785-bf05-d87bae28cee9"><rect width="640" height="400" fill="white"></rect><rect width="348.05760000000004" height="157.213148344304" fill="black" x="145.97119999999998" y="121.393425827848" id="transform-me" transform="matrix(1,0,0,1,-122.24000000000001,-154.36607511505517)"></rect></mask></defs></svg><rect width="395.52" height="247.2" fill="none" stroke="none" visibility="hidden"></rect></g></svg></g></svg>